<?xml version="1.0" standalone="no"?>
<!DOCTYPE svg PUBLIC "-//W3C//DTD SVG 20010904//EN"
 "http://www.w3.org/TR/2001/REC-SVG-20010904/DTD/svg10.dtd">
<svg version="1.0" xmlns="http://www.w3.org/2000/svg"
 width="1280.000000pt" height="1248.000000pt" viewBox="0 0 1280.000000 1248.000000"
 preserveAspectRatio="xMidYMid meet">
<g transform="translate(0.000000,1248.000000) scale(0.100000,-0.100000)"
fill="#000000" stroke="none">
<path d="M8725 12466 c-349 -59 -639 -243 -828 -528 -136 -204 -200 -416 -200
-668 0 -258 64 -466 209 -681 75 -112 214 -251 321 -322 270 -179 610 -246
918 -182 489 102 855 478 949 974 21 108 21 314 0 422 -93 493 -463 873 -949
974 -108 22 -319 28 -420 11z"/>
<path d="M12595 10751 l-191 -128 -43 -137 c-24 -75 -74 -230 -111 -344 l-68
-207 -1359 -332 c-747 -183 -1363 -331 -1368 -329 -6 2 -402 288 -880 636
-479 348 -879 636 -890 640 -11 4 -245 26 -519 49 -405 34 -502 39 -512 29
-10 -11 -968 -1211 -2461 -3080 l-453 -568 -149 -547 c-82 -302 -285 -1047
-451 -1658 l-302 -1110 -316 -316 c-175 -173 -742 -733 -1262 -1244 -520 -511
-1016 -999 -1103 -1085 l-158 -156 97 -248 98 -249 878 4 c483 2 878 5 878 6
0 2 -211 172 -470 379 -258 207 -470 380 -469 383 0 3 534 382 1186 841 652
459 1211 853 1242 876 50 36 60 50 83 110 15 38 117 303 226 589 110 286 282
734 382 995 100 261 249 651 332 865 82 215 165 433 185 485 20 52 39 98 42
102 5 6 1606 -2545 1640 -2613 13 -25 12 -35 -12 -101 -99 -283 -691 -1966
-837 -2382 l-109 -308 216 -268 216 -269 61 -5 c105 -9 1589 -57 1594 -51 3 3
1 9 -4 14 -5 6 -297 182 -649 392 -352 210 -642 383 -644 385 -3 3 205 463
1065 2358 l263 578 -296 637 c-162 350 -428 922 -590 1271 -598 1286 -539
1151 -516 1170 11 9 417 298 902 644 620 442 885 625 894 618 9 -6 1359 -1079
1454 -1154 7 -6 119 16 315 61 1201 278 2197 509 2628 608 278 64 508 119 513
123 4 3 6 329 5 723 l-3 716 -160 -104 c-152 -99 -160 -106 -167 -142 -27
-150 -129 -668 -133 -671 -2 -2 -104 -15 -227 -28 -1973 -209 -2595 -274
-2614 -274 -16 0 -169 155 -568 577 -300 317 -545 578 -543 579 2 2 232 -94
511 -213 l508 -216 62 15 c33 8 798 214 1699 458 l1637 444 0 653 c0 359 -3
653 -7 652 -5 0 -94 -58 -198 -128z"/>
</g>
</svg>
